<?xml version="1.0" encoding="UTF-8" standalone="no"?>
<svg
   xmlns:dc="http://purl.org/dc/elements/1.1/"
   xmlns:cc="http://creativecommons.org/ns#"
   xmlns:rdf="http://www.w3.org/1999/02/22-rdf-syntax-ns#"
   xmlns:svg="http://www.w3.org/2000/svg"
   xmlns="http://www.w3.org/2000/svg"
   xmlns:sodipodi="http://sodipodi.sourceforge.net/DTD/sodipodi-0.dtd"
   xmlns:inkscape="http://www.inkscape.org/namespaces/inkscape"
   width="210mm"
   height="297mm"
   viewBox="0 0 210 297"
   version="1.1"
   id="svg8"
   inkscape:version="1.0.1 (3bc2e813f5, 2020-09-07)"
   sodipodi:docname="biometricas.svg">
  <defs
     id="defs2" />
  <sodipodi:namedview
     id="base"
     pagecolor="#ffffff"
     bordercolor="#666666"
     borderopacity="1.0"
     inkscape:pageopacity="0.0"
     inkscape:pageshadow="2"
     inkscape:zoom="0.49497475"
     inkscape:cx="45.85766"
     inkscape:cy="430.09772"
     inkscape:document-units="mm"
     inkscape:current-layer="layer1"
     inkscape:document-rotation="0"
     showgrid="false"
     inkscape:window-width="1584"
     inkscape:window-height="860"
     inkscape:window-x="0"
     inkscape:window-y="0"
     inkscape:window-maximized="0" />
  <metadata
     id="metadata5">
    <rdf:RDF>
      <cc:Work
         rdf:about="">
        <dc:format>image/svg+xml</dc:format>
        <dc:type
           rdf:resource="http://purl.org/dc/dcmitype/StillImage" />
        <dc:title></dc:title>
      </cc:Work>
    </rdf:RDF>
  </metadata>
  <g
     inkscape:label="Layer 1"
     inkscape:groupmode="layer"
     id="layer1">
    <text
       xml:space="preserve"
       style="font-size:211.832px;line-height:1.25;font-family:'MADE Tommy Soft';-inkscape-font-specification:'MADE Tommy Soft';fill:#000000;fill-opacity:1;stroke-width:5.29584"
       x="80.604065"
       y="185.34914"
       id="text12"
       transform="scale(0.86639798,1.154204)"><tspan
         sodipodi:role="line"
         id="tspan10"
         x="80.604065"
         y="185.34914"
         style="fill:#000000;fill-opacity:1;stroke-width:5.29584">B</tspan></text>
    <g
       id="g583"
       transform="matrix(0.35209012,0,0,0.35209012,-19.355822,38.755497)">
      <path
         d="m 297.20312,14.839844 h -88.92968 c -9.35938,0 -16.94922,7.589844 -16.94922,16.949218 V 480.21094 c 0,9.36328 7.58984,16.94922 16.94922,16.94922 h 88.92968 c 9.35938,0 16.94922,-7.58594 16.94922,-16.94922 V 31.789062 c 0,-9.359374 -7.58984,-16.949218 -16.94922,-16.949218 z m -51.10937,97.921876 c -11.4375,0 -20.70703,-9.26953 -20.70703,-20.703126 0,-11.4375 9.26953,-20.707032 20.70703,-20.707032 11.43359,0 20.70312,9.269532 20.70312,20.707032 0,11.433596 -9.26953,20.703126 -20.70312,20.703126 z m 0,0"
         fill="#00c0f2"
         id="path450"
         style="fill:#20c997" />
      <path
         d="m 266.79687,92.058594 c 0,11.433596 -9.26953,20.703126 -20.70312,20.703126 -11.4375,0 -20.70703,-9.26953 -20.70703,-20.703126 0,-11.4375 9.26953,-20.707032 20.70703,-20.707032 11.43359,0 20.70312,9.269532 20.70312,20.707032 z m 0,0"
         fill="#e6f5fc"
         id="path452" />
      <path
         d="m 297.20312,4.839844 h -88.92968 c -14.85938,0 -26.94922,12.089844 -26.94922,26.949218 V 480.21094 c 0,14.85937 12.08984,26.94922 26.94922,26.94922 h 88.92968 c 14.85938,0 26.94922,-12.08985 26.94922,-26.94922 V 31.789062 c 0,-14.859374 -12.08984,-26.949218 -26.94922,-26.949218 z m 0,482.320316 h -88.92968 c -3.83203,0 -6.94922,-3.11719 -6.94922,-6.94922 V 31.789062 c 0,-3.832031 3.11719,-6.949218 6.94922,-6.949218 h 88.92968 c 3.83204,0 6.94922,3.117187 6.94922,6.949218 v 29.375 h -9.76562 c -5.52344,0 -10,4.476563 -10,10 0,5.523438 4.47656,10 10,10 h 9.76562 v 52.371098 h -36.41015 c -5.51953,0 -10,4.48047 -10,10 0,5.52343 4.48047,10 10,10 h 36.41015 v 52.375 h -36.41015 c -5.51953,0 -10,4.47656 -10,10 0,5.52343 4.48047,10 10,10 h 36.41015 v 52.37109 h -36.41015 c -5.51953,0 -10,4.48047 -10,10 0,5.52344 4.48047,10 10,10 h 36.41015 v 52.375 h -36.41015 c -5.51953,0 -10,4.47656 -10,10 0,5.52344 4.48047,10 10,10 h 36.41015 v 52.37109 h -36.41015 c -5.51953,0 -10,4.48047 -10,10 0,5.52344 4.48047,10 10,10 h 36.41015 v 37.1875 c 0,3.82813 -3.11718,6.94532 -6.94922,6.94532 z m 0,0"
         id="path460" />
      <path
         d="m 276.79687,92.058594 c 0,-16.929688 -13.77343,-30.707032 -30.70312,-30.707032 -16.93359,0 -30.70703,13.777344 -30.70703,30.707032 0,16.929686 13.77344,30.703126 30.70703,30.703126 16.92969,0 30.70312,-13.77344 30.70312,-30.703126 z m -30.70312,10.703126 c -5.90234,0 -10.70703,-4.800782 -10.70703,-10.707032 0,-5.902344 4.80469,-10.703126 10.70703,-10.703126 5.89844,0 10.70312,4.800782 10.70312,10.703126 0,5.902343 -4.80468,10.707032 -10.70312,10.707032 z m 0,0"
         id="path462" />
    </g>
  </g>
</svg>
